<svg xmlns="http://www.w3.org/2000/svg" xmlns:xlink="http://www.w3.org/1999/xlink" version="1.1" width="256" height="256" viewBox="0 0 256 256" xml:space="preserve">
<g style="stroke: none; stroke-width: 0; stroke-dasharray: none; stroke-linecap: butt; stroke-linejoin: miter; stroke-miterlimit: 10; fill: none; fill-rule: nonzero; opacity: 1;" transform="translate(1.4065934065934016 1.4065934065934016) scale(2.81 2.81)">
	<path d="M 80.399 16.264 c 1.967 0 3.567 1.6 3.567 3.567 v 2.739 H 51.813 c -2.342 -0.659 -3.954 -2.769 -3.954 -5.227 c 0 -0.364 -0.019 -0.724 -0.055 -1.079 H 80.399 z" style="stroke: none; stroke-width: 1; stroke-dasharray: none; stroke-linecap: butt; stroke-linejoin: miter; stroke-miterlimit: 10; fill: rgb(0,0,0); fill-rule: nonzero; opacity: 1;" transform=" matrix(1 0 0 1 0 0) " stroke-linecap="round"/>
	<path d="M 90 74.433 c 0 1.786 -1.452 3.239 -3.239 3.239 H 3.239 C 1.453 77.672 0 76.22 0 74.433 v -57.09 c 0 -2.765 2.25 -5.015 5.015 -5.015 h 32.204 c 2.765 0 5.015 2.25 5.015 5.015 c 0 5.196 3.539 9.63 8.606 10.782 c 0.205 0.046 0.414 0.07 0.624 0.07 h 34.2 c 2.391 0 4.335 1.945 4.335 4.335 V 74.433 z" style="stroke: none; stroke-width: 1; stroke-dasharray: none; stroke-linecap: butt; stroke-linejoin: miter; stroke-miterlimit: 10; fill: rgb(0,0,0); fill-rule: nonzero; opacity: 1;" transform=" matrix(1 0 0 1 0 0) " stroke-linecap="round"/>
</g>
</svg>